<svg width="24" height="18" viewBox="0 0 24 18" fill="none" xmlns="http://www.w3.org/2000/svg">
<path id="Vector" fill-rule="evenodd" clip-rule="evenodd" d="M15.3936 10.6008L11.9976 12.9228L8.724 10.6644L1.386 17.904C1.5796 17.9672 1.7844 17.9992 2.0004 18H21.9996C22.2636 18 22.5156 17.9484 22.7472 17.856L15.3936 10.6008ZM-9.53674e-07 4.6512V15.9996C-9.53674e-07 16.296 0.0647986 16.5768 0.179999 16.83L7.3728 9.7332L-9.53674e-07 4.6512ZM24 4.7148L16.7496 9.6732L23.8728 16.7028C23.9562 16.4777 23.9993 16.2397 24 15.9996V4.7148ZM2.0004 0C0.896399 0 -9.53674e-07 0.8952 -9.53674e-07 2.0004V2.7036L12.0024 10.9776L24 2.772V2.0004C24 0.8964 23.1048 0 21.9996 0H2.0004Z" fill="#FF9A2E"/>
</svg>
